# Blender v2.93.0 OBJ File: ''
# www.blender.org
mtllib cube01.mtl
o Cube_cell.001_Cube_cell.003
v 1.000000 2.048675 -1.000000
v 1.000000 0.048675 -1.000000
v -1.000000 2.048675 -1.000000
v -1.000000 0.500871 -1.000000
v -0.992063 0.493687 -1.000000
v -1.000000 2.048675 -0.219559
v -0.907539 0.417390 -1.000000
v 1.000000 0.048675 -0.316714
v 1.000000 2.048675 0.693214
v 0.814391 0.048675 -0.401317
v -0.498141 0.048675 -1.000000
v -1.000000 0.500871 -1.000000
v -0.992063 0.493687 -1.000000
v -0.907539 0.417390 -1.000000
v 0.814391 0.048675 -0.401317
v -0.498141 0.048675 -1.000000
v -1.000000 2.048675 -0.219559
v 1.000000 2.048675 0.693214
v 1.000000 0.048675 -0.316714
vt 0.180957 0.112260
vt 1.000000 0.112095
vt 1.000000 0.932042
vt 0.625000 0.711652
vt 0.625000 0.500000
vt 0.875000 0.500000
vt 0.875000 0.597555
vt 0.625000 0.152445
vt 0.625000 0.250000
vt 0.431525 0.250000
vt 0.187732 0.500000
vt 0.375000 0.500000
vt 0.375000 0.585411
vt 0.351799 0.574835
vt 0.375000 0.312732
vt 0.421089 0.261558
vt 0.430627 0.250992
vt 0.976086 0.970990
vt 0.054127 0.023605
vt 0.991868 0.023923
vt 0.027704 0.027704
vt 0.067958 0.000000
vt 0.887905 0.000000
vt 0.976284 0.018920
vn -0.3769 -0.4185 0.8263
vn 0.0000 1.0000 0.0000
vn -1.0000 0.0000 0.0000
vn 0.0000 -1.0000 0.0000
vn 1.0000 0.0000 0.0000
vn 0.0000 0.0000 -1.0000
vn -0.3771 -0.4173 0.8269
usemtl Material
s off
f 16/1/1 15/2/1 7/3/1
f 18/4/2 1/5/2 3/6/2 17/7/2
f 17/8/3 3/9/3 12/10/3
f 11/11/4 2/12/4 19/13/4 10/14/4
f 19/13/5 2/12/5 1/5/5 18/4/5
f 3/9/6 1/5/6 2/12/6 11/15/6 14/16/6 13/17/6 12/10/6
f 9/18/7 6/19/7 4/20/7 5/21/7 7/22/7 15/23/7 8/24/7
